<svg width="26" height="27" viewBox="0 0 26 27" fill="none" xmlns="http://www.w3.org/2000/svg">
<g clip-path="url(#clip0_796_132)">
<path d="M4.15064 25.1559L6.9562 22.2736C7.05357 22.1731 7.16922 22.0934 7.29655 22.0389C7.42387 21.9845 7.56037 21.9564 7.69824 21.9564H20.0218C20.2999 21.9564 20.5667 21.8426 20.7634 21.6401C20.9601 21.4375 21.0706 21.1628 21.0706 20.8764V8.23903C21.0706 8.09707 21.0979 7.95651 21.1507 7.8254C21.2036 7.69429 21.2811 7.5752 21.3787 7.47493L24.2091 4.56298C24.3561 4.41144 24.5436 4.30833 24.7476 4.26675C24.9517 4.22518 25.1631 4.24703 25.3551 4.32951C25.547 4.41199 25.7108 4.55139 25.8257 4.72998C25.9405 4.90858 26.0012 5.1183 26 5.33248V25.92C26 26.2064 25.8895 26.4811 25.6928 26.6837C25.4961 26.8862 25.2293 27 24.9512 27H4.89791C4.68991 27.0012 4.48625 26.9388 4.31281 26.8205C4.13938 26.7023 4.00401 26.5336 3.92391 26.3359C3.8438 26.1382 3.82259 25.9205 3.86296 25.7104C3.90334 25.5003 4.00347 25.3073 4.15064 25.1559Z" fill="white"/>
<path opacity="0.35" d="M21.8492 1.8441L19.0437 4.72635C18.9463 4.82686 18.8306 4.90661 18.7033 4.96104C18.576 5.01548 18.4395 5.04354 18.3016 5.0436H5.97811C5.69995 5.0436 5.43318 5.15739 5.23649 5.35993C5.0398 5.56247 4.9293 5.83717 4.9293 6.1236V18.761C4.92924 18.9029 4.902 19.0435 4.84913 19.1746C4.79627 19.3057 4.71882 19.4248 4.62121 19.5251L1.79074 22.437C1.64374 22.5885 1.4563 22.6917 1.25226 22.7332C1.04821 22.7748 0.83676 22.753 0.644796 22.6705C0.452833 22.588 0.289023 22.4486 0.17419 22.27C0.0593577 22.0914 -0.00131156 21.8817 -0.0001044 21.6675V1.08C-0.0001044 0.793567 0.110395 0.518865 0.307085 0.316325C0.503775 0.113786 0.770544 3.34585e-07 1.04871 3.34585e-07H21.1072C21.3148 -0.000167862 21.5177 0.0630819 21.6903 0.181742C21.8629 0.300403 21.9975 0.469138 22.077 0.666587C22.1564 0.864036 22.1772 1.08132 22.1366 1.29093C22.0961 1.50054 21.9961 1.69306 21.8492 1.8441Z" fill="white"/>
</g>
<defs>
<clipPath id="clip0_796_132">
<rect width="26" height="27" fill="white"/>
</clipPath>
</defs>
</svg>
