<svg width="30" height="33" viewBox="0 0 30 33" fill="none" xmlns="http://www.w3.org/2000/svg">
<g clip-path="url(#clip0_796_136)">
<path d="M5.59595 0C9.17558 5.24832 16.725 17.123 16.5941 24.0781C16.4631 31.0332 15.0321 33 15.0321 33C15.0321 33 10.6132 27.555 5.59595 23.4868C4.87976 18.3044 4.54851 13.5155 0 9.57792C4.29451 10.5019 9.76083 16.7297 10.3435 19.8132C10.5412 14.2362 10.6132 10.494 5.59595 0Z" fill="white"/>
<path d="M18.6432 20.3386C17.5826 16.7957 16.5286 14.1055 16.073 13.5155C18.3512 9.18458 19.2611 7.15046 24.0768 0.262695C20.0755 10.7593 19.9773 11.2187 19.7168 16.401C19.3266 17.8451 18.6432 20.3386 18.6432 20.3386Z" fill="white"/>
<path d="M19.7168 28.0143C19.7168 23.6834 21.2146 14.1055 29.9987 9.38123C25.3141 14.1055 24.8584 18.4351 24.4028 23.3561C22.2555 25.5209 21.5053 26.4053 19.7168 28.0143Z" fill="white"/>
</g>
<defs>
<clipPath id="clip0_796_136">
<rect width="30" height="33" fill="white"/>
</clipPath>
</defs>
</svg>
