<svg width="26" height="27" viewBox="0 0 26 27" fill="none" xmlns="http://www.w3.org/2000/svg">
<g clip-path="url(#clip0_796_141)">
<path opacity="0.35" d="M14.9162 1.8441L13.1723 3.6666C13.0763 3.76686 12.9624 3.84636 12.8371 3.90057C12.7117 3.95477 12.5774 3.98261 12.4417 3.9825H4.84814C4.57427 3.9825 4.31162 4.09629 4.11797 4.29882C3.92431 4.50136 3.81552 4.77607 3.81552 5.0625V13.0545C3.81546 13.1965 3.78863 13.337 3.73658 13.4681C3.68454 13.5992 3.60828 13.7183 3.51219 13.8186L1.7619 15.6492C1.6175 15.7999 1.43366 15.9024 1.23358 15.944C1.03351 15.9855 0.826158 15.9641 0.637689 15.8825C0.449221 15.8009 0.288078 15.6628 0.174589 15.4855C0.0610996 15.3082 0.000349015 15.0998 0 14.8864V1.08C0 0.793567 0.108793 0.518864 0.302446 0.316325C0.496099 0.113786 0.75875 3.34585e-07 1.03262 3.34585e-07H14.1856C14.3899 -0.000167862 14.5897 0.0630819 14.7597 0.181742C14.9297 0.300403 15.0621 0.469138 15.1404 0.666587C15.2186 0.864036 15.239 1.08132 15.1991 1.29093C15.1592 1.50054 15.0607 1.69306 14.9162 1.8441Z" fill="white"/>
<path opacity="0.35" d="M11.0826 25.1519L12.8265 23.3294C12.9223 23.2289 13.0362 23.1491 13.1616 23.0947C13.2869 23.0403 13.4213 23.0122 13.557 23.0121H21.1507C21.4245 23.0121 21.6872 22.8983 21.8808 22.6958C22.0745 22.4933 22.1833 22.2186 22.1833 21.9321V13.9415C22.1832 13.7996 22.2098 13.6591 22.2616 13.528C22.3134 13.3969 22.3894 13.2778 22.4853 13.1774L24.2369 11.3454C24.3814 11.1947 24.5653 11.0921 24.7655 11.0506C24.9657 11.0091 25.1732 11.0306 25.3617 11.1124C25.5502 11.1942 25.7113 11.3325 25.8247 11.51C25.9381 11.6874 25.9987 11.8961 25.9988 12.1095V25.916C25.9988 26.2024 25.89 26.4771 25.6963 26.6797C25.5027 26.8822 25.24 26.996 24.9662 26.996H11.8132C11.6089 26.9961 11.4091 26.9329 11.2391 26.8142C11.0691 26.6956 10.9367 26.5268 10.8584 26.3294C10.7802 26.1319 10.7598 25.9147 10.7997 25.705C10.8396 25.4954 10.9381 25.3029 11.0826 25.1519Z" fill="white"/>
<path d="M21.2513 0H24.9661C25.24 0 25.5026 0.113786 25.6963 0.316325C25.8899 0.518864 25.9987 0.793566 25.9987 1.08V4.52925C25.9988 4.67112 25.9722 4.81162 25.9204 4.94273C25.8686 5.07383 25.7925 5.19298 25.6967 5.29335L5.24442 26.6841C5.05092 26.8863 4.78864 26.9999 4.51514 27H1.03005C0.756187 27 0.493536 26.8862 0.299883 26.6837C0.10623 26.4811 -0.00256316 26.2064 -0.00256316 25.92V22.1791C-0.00266982 22.0373 0.0239496 21.8968 0.0757746 21.7657C0.1276 21.6346 0.203615 21.5154 0.299477 21.4151L20.522 0.3159C20.7155 0.113743 20.9778 0.000132571 21.2513 0Z" fill="white"/>
</g>
<defs>
<clipPath id="clip0_796_141">
<rect width="26" height="27" fill="white"/>
</clipPath>
</defs>
</svg>
