<svg width="34" height="30" viewBox="0 0 34 30" fill="none" xmlns="http://www.w3.org/2000/svg">
<g clip-path="url(#clip0_796_146)">
<path d="M12.7172 0.283926L11.9066 1.891C11.8607 1.98271 11.8424 2.08616 11.8542 2.18838C11.8659 2.29059 11.9071 2.38701 11.9725 2.46553L16.6158 8.05144C16.664 8.10928 16.7241 8.15575 16.7918 8.18763C16.8595 8.2195 16.9333 8.23601 17.0079 8.23601C17.0825 8.23601 17.1562 8.2195 17.2239 8.18763C17.2917 8.15575 17.3517 8.10928 17.4 8.05144L22.034 2.52177C22.1015 2.44156 22.1435 2.34239 22.1543 2.2374C22.1652 2.13241 22.1443 2.02655 22.0946 1.93385L21.1971 0.267855C21.1522 0.186168 21.0866 0.118217 21.0071 0.0711004C20.9276 0.0239843 20.8371 -0.000567604 20.745 9.95973e-06H13.1679C13.0745 0.00137945 12.9833 0.0285199 12.9039 0.0785288C12.8245 0.128538 12.7599 0.199534 12.7172 0.283926Z" fill="white"/>
<path d="M10.7863 6.71896L13.5541 9.53133C13.6184 9.59643 13.6645 9.67776 13.6877 9.76696C13.7109 9.85616 13.7102 9.95002 13.6859 10.0389L11.8947 16.644C11.8759 16.7141 11.8428 16.7795 11.7976 16.8359C11.7524 16.8922 11.6961 16.9384 11.6323 16.9713C11.5685 17.0042 11.4986 17.0232 11.4271 17.027C11.3556 17.0309 11.2842 17.0194 11.2173 16.9935L7.07225 15.3864C6.99725 15.3581 6.92982 15.3123 6.87537 15.2527C6.82091 15.1931 6.78094 15.1214 6.75865 15.0433C6.73636 14.9652 6.73237 14.8829 6.74701 14.8029C6.76164 14.723 6.79449 14.6476 6.84292 14.5829L8.96619 11.662C9.02163 11.5855 9.05549 11.4951 9.06411 11.4005C9.07273 11.3059 9.0558 11.2107 9.01512 11.1251C8.97445 11.0396 8.91158 10.9669 8.83329 10.915C8.75499 10.8631 8.66424 10.8338 8.57079 10.8304C7.26204 10.7902 4.9358 10.5518 3.16706 9.45232C1.95188 8.70503 0.9489 8.02738 0.224009 7.51713C0.132661 7.45433 0.0636164 7.36333 0.0270758 7.25759C-0.00946469 7.15185 -0.0115631 7.03697 0.0210907 6.92992C0.0537446 6.82287 0.119419 6.72934 0.20841 6.66313C0.297402 6.59693 0.404992 6.56156 0.515283 6.56227H10.4226C10.4904 6.56279 10.5574 6.57689 10.6198 6.60378C10.6822 6.63067 10.7388 6.66981 10.7863 6.71896Z" fill="white"/>
<path d="M23.2149 6.71895L20.4472 9.53132C20.3828 9.59642 20.3367 9.67775 20.3136 9.76695C20.2904 9.85615 20.291 9.95001 20.3154 10.0389L22.1105 16.6399C22.1293 16.7101 22.1624 16.7755 22.2076 16.8318C22.2528 16.8882 22.3091 16.9343 22.3729 16.9673C22.4368 17.0002 22.5066 17.0192 22.5781 17.023C22.6496 17.0268 22.721 17.0154 22.7879 16.9895L26.933 15.3824C27.008 15.354 27.0754 15.3082 27.1298 15.2486C27.1843 15.1891 27.2243 15.1173 27.2466 15.0392C27.2688 14.9612 27.2728 14.8788 27.2582 14.7989C27.2436 14.7189 27.2107 14.6436 27.1623 14.5789L25.039 11.658C24.9836 11.5815 24.9497 11.4911 24.9411 11.3965C24.9325 11.3019 24.9494 11.2067 24.9901 11.1211C25.0308 11.0356 25.0936 10.9629 25.1719 10.911C25.2502 10.859 25.341 10.8298 25.4344 10.8264C26.7432 10.7862 29.0694 10.5478 30.8381 9.44829C32.0481 8.69698 33.051 8.01933 33.7759 7.50909C33.8638 7.44516 33.9295 7.35473 33.9639 7.25064C33.9983 7.14656 33.9995 7.03411 33.9674 6.92928C33.9353 6.82445 33.8715 6.73256 33.7851 6.66668C33.6987 6.60079 33.594 6.56425 33.486 6.56226H23.5787C23.5109 6.56277 23.4439 6.57688 23.3814 6.60377C23.319 6.63066 23.2624 6.6698 23.2149 6.71895Z" fill="white"/>
<path d="M16.6197 11.6298C16.6676 11.6833 16.726 11.7261 16.7912 11.7554C16.8563 11.7846 16.9267 11.7997 16.998 11.7997C17.0692 11.7997 17.1396 11.7846 17.2048 11.7554C17.2699 11.7261 17.3283 11.6833 17.3762 11.6298C17.4404 11.5587 17.5226 11.507 17.6139 11.4804C17.7052 11.4539 17.802 11.4536 17.8934 11.4796C17.9849 11.5055 18.0675 11.5567 18.132 11.6274C18.1966 11.6981 18.2407 11.7856 18.2593 11.8802L21.1773 26.526C21.1965 26.6223 21.1887 26.722 21.1547 26.814C21.1206 26.9059 21.0618 26.9862 20.9849 27.0456L17.3077 29.8902C17.2184 29.9589 17.1094 29.9961 16.9973 29.9961C16.8852 29.9961 16.7762 29.9589 16.6869 29.8902L12.9689 27.0523C12.891 26.993 12.8315 26.9124 12.7971 26.8199C12.7628 26.7273 12.7552 26.6268 12.7752 26.53L15.738 11.8816C15.7566 11.7871 15.8005 11.6998 15.8649 11.6291C15.9293 11.5585 16.0117 11.5073 16.1029 11.4812C16.1942 11.4552 16.2907 11.4553 16.3819 11.4815C16.4731 11.5077 16.5554 11.559 16.6197 11.6298Z" fill="white"/>
</g>
<defs>
<clipPath id="clip0_796_146">
<rect width="34" height="30" fill="white"/>
</clipPath>
</defs>
</svg>
