<svg width="26" height="27" viewBox="0 0 26 27" fill="none" xmlns="http://www.w3.org/2000/svg">
<g clip-path="url(#clip0_796_152)">
<path d="M21.6199 2.0736L19.0818 4.6872C18.8607 4.91512 18.5608 5.04332 18.248 5.0436H6.10538C5.79245 5.0436 5.49234 5.17161 5.27106 5.39947C5.04978 5.62732 4.92547 5.93636 4.92547 6.2586V18.7056C4.9252 19.0277 4.80071 19.3366 4.57937 19.5642L2.01372 22.2075C1.84871 22.3772 1.63856 22.4927 1.40981 22.5395C1.18107 22.5863 0.943992 22.5623 0.728519 22.4704C0.513046 22.3785 0.328845 22.223 0.199181 22.0234C0.0695167 21.8237 0.000205127 21.589 0 21.3489V1.215C0 0.892762 0.124312 0.583722 0.345588 0.355865C0.566864 0.128009 0.866979 3.24831e-08 1.17991 3.24831e-08H20.7848C21.0181 -5.55123e-05 21.2462 0.0711247 21.4403 0.204542C21.6343 0.33796 21.7856 0.527625 21.875 0.74956C21.9643 0.971496 21.9878 1.21574 21.9424 1.45141C21.897 1.68708 21.7848 1.9036 21.6199 2.0736Z" fill="white"/>
<path opacity="0.35" d="M4.3801 24.9264L6.91822 22.3128C7.13929 22.0848 7.4392 21.9567 7.75203 21.9564H19.8946C20.2076 21.9564 20.5077 21.8284 20.7289 21.6005C20.9502 21.3726 21.0745 21.0636 21.0745 20.7414V8.29437C21.0748 7.97224 21.1993 7.6634 21.4206 7.43577L23.9863 4.79247C24.1513 4.62276 24.3615 4.50721 24.5902 4.46042C24.8189 4.41363 25.056 4.43769 25.2715 4.52956C25.487 4.62143 25.6712 4.777 25.8008 4.97661C25.9305 5.17622 25.9998 5.41092 26 5.65107V25.785C26 26.1072 25.8757 26.4162 25.6544 26.6441C25.4331 26.872 25.133 27 24.8201 27H5.21522C4.98189 27 4.75379 26.9288 4.55974 26.7954C4.3657 26.662 4.21442 26.4723 4.12504 26.2504C4.03566 26.0285 4.01219 25.7842 4.05759 25.5486C4.10299 25.3129 4.21522 25.0964 4.3801 24.9264Z" fill="white"/>
</g>
<defs>
<clipPath id="clip0_796_152">
<rect width="26" height="27" fill="white"/>
</clipPath>
</defs>
</svg>
